<?xml version="1.0" encoding="UTF-8" standalone="no"?>
<svg
   height="24"
   viewBox="0 -960 960 960"
   width="24"
   version="1.1"
   id="svg1"
   xmlns="http://www.w3.org/2000/svg"
   xmlns:svg="http://www.w3.org/2000/svg">
  <defs
     id="defs1" />
  <path
     d="M440-160v-487L216-423l-56-57 320-320 320 320-56 57-224-224v487h-80Z"
     id="path1" />
  <path
     style="fill:#ffffff;stroke-width:0.0292326"
     d="m 11.020706,13.900122 c 0,-3.344215 -0.0098,-6.08039 -0.02187,-6.08039 -0.01203,0 -1.2781664,1.2544721 -2.8136422,2.787716 L 5.3934197,13.395163 4.7080246,12.696023 4.0226295,11.996883 8.0113399,8.0081721 12.00005,4.0194616 l 3.988291,3.9883705 3.98829,3.9883709 -0.685028,0.700449 -0.685029,0.700449 L 15.8148,10.608417 C 14.279327,9.07464 13.013189,7.819732 13.001161,7.819732 c -0.01203,0 -0.02187,2.736175 -0.02187,6.08039 v 6.08039 H 12 11.020706 Z"
     id="path2"
     transform="matrix(40,0,0,40,0,-960)" />
</svg>
